<svg xmlns="http://www.w3.org/2000/svg" width="77" height="70" viewBox="0 0 77 70">
    <g fill="none" fill-rule="evenodd">
        <g>
            <g>
                <path fill="#FFC133" d="M24.99 61.316H23.48l-.151-1.228h-1.245l-.152 1.228h-1.509c.038-.322.073-.635.113-.948.097-.76.19-1.52.296-2.278.118-.854.24-1.708.376-2.56.168-1.06.352-2.12.528-3.179.03-.184.029-.184.214-.184.526 0 1.051.002 1.576-.002.086 0 .123.016.139.112.252 1.579.526 3.154.761 4.735.2 1.344.356 2.694.531 4.04l.032.264m-1.86-2.734c-.173-1.346-.2-2.694-.294-4.047h-.258c-.094 1.355-.12 2.703-.293 4.047h.844M9.296 61.318h-1.51l-.152-1.23H6.388c-.045.373-.094.743-.132 1.114-.01.096-.04.125-.137.124-.425-.006-.85-.003-1.275-.003h-.116c.03-.256.056-.498.087-.74.082-.657.161-1.314.251-1.969.12-.88.24-1.76.378-2.637.175-1.118.366-2.234.55-3.351.022-.128.048-.255.065-.383.008-.06.034-.077.091-.077.573.002 1.145.002 1.717 0 .062 0 .087.018.097.082.184 1.12.38 2.24.557 3.362.152.965.29 1.934.423 2.902.105.77.195 1.541.29 2.312l.062.494M6.881 54.55c-.093 1.342-.12 2.69-.291 4.033h.848c-.027-.208-.064-.41-.078-.613-.07-1.068-.134-2.137-.203-3.206-.017-.269.043-.228-.254-.225-.003 0-.006.003-.022.011M4.165 53.92l-1.426.459-.026-.29c-.035-.347-.192-.49-.54-.496-.065 0-.13.002-.195.01-.217.026-.35.13-.386.344-.036.215-.053.435-.054.654-.008 1.331-.01 2.662-.008 3.994 0 .258.014.517.04.775.03.313.191.45.505.456.467.009.617-.11.642-.58.032-.58.033-1.162.048-1.752h-.498v-1.487h1.931v5.316c-.173 0-.342.003-.51-.003-.033-.001-.069-.034-.096-.06l-.581-.58c-.19.19-.376.372-.557.56-.06.064-.122.093-.208.084-.274-.03-.555-.03-.823-.089-.587-.13-.938-.527-1.128-1.08-.145-.422-.218-.86-.236-1.302C.027 58.02 0 57.185 0 56.351c.002-.664.04-1.329.083-1.993.026-.416.109-.825.27-1.215.21-.508.574-.837 1.115-.953.51-.11 1.023-.112 1.529.02.657.17 1.012.62 1.117 1.28.02.127.036.255.053.383.002.011 0 .022-.002.048M16.958 61.316L13.7 61.316 13.7 52.176 16.592 52.176 16.592 53.66 15.221 53.66 15.221 55.994 16.589 55.994 16.589 57.487 15.219 57.487 15.219 59.825 16.958 59.825 16.958 61.316M13.183 52.177c-.025.347-.039.688-.075 1.027-.134 1.234-.515 2.406-.909 3.575-.281.833-.571 1.665-.73 2.534-.03.166-.052.332-.08.51h1.773v1.493H9.718c0-.212-.01-.42.002-.625.069-1.11.34-2.178.666-3.234.253-.82.517-1.637.753-2.462.112-.393.168-.801.249-1.203.007-.037.005-.077.008-.125H9.708v-1.49h3.475M19.662 61.317L18.142 61.317 18.142 53.665 17.126 53.665 17.126 52.174 20.672 52.174 20.672 53.662 19.662 53.662 19.662 61.317M.254 63.246c.55.014 1.098.002 1.64.05.524.048.787.419.878.903.066.355.113.72.118 1.08.009.758-.009 1.516-.03 2.274-.006.206-.05.415-.1.616-.14.549-.42.818-.98.859-.504.036-1.012.007-1.526.007v-5.79zm.872.875v4.102h.32c.305-.003.44-.118.49-.417.009-.053.02-.107.02-.16.004-.893.01-1.784.008-2.676 0-.182-.021-.366-.054-.545-.033-.176-.155-.286-.336-.302-.146-.012-.294-.002-.448-.002zM14.113 66.142c.03-.534.05-1.07.092-1.603.015-.194.066-.39.126-.576.133-.417.423-.666.86-.705.238-.022.484-.02.718.015.467.072.703.397.817.828.098.371.13.751.132 1.133.005.65.013 1.301-.007 1.951-.01.328-.055.66-.127.98-.124.551-.415.807-.975.863-.235.024-.483.006-.716-.04-.362-.07-.582-.321-.703-.662-.118-.333-.157-.68-.169-1.028-.012-.385-.003-.77-.003-1.154l-.045-.002m1.897.011h-.014c0-.295.003-.59 0-.884-.004-.266-.013-.532-.026-.798-.01-.217-.09-.333-.272-.36-.128-.02-.264-.014-.395.001-.133.016-.221.103-.243.24-.017.109-.033.22-.034.33-.008.738-.014 1.476-.014 2.213 0 .316.012.633.03.949.013.252.119.351.37.374.046.004.093.004.14.001.298-.012.412-.119.42-.415.017-.55.026-1.1.038-1.65M24.956 66.15c-.03.535-.05 1.07-.092 1.604-.016.194-.068.39-.13.576-.136.411-.429.65-.861.691-.217.02-.44.022-.655-.004-.453-.056-.724-.335-.853-.762-.119-.39-.151-.79-.154-1.194-.007-.65-.007-1.301.003-1.952.006-.359.042-.717.146-1.064.153-.511.463-.769.996-.804.185-.013.375-.006.559.019.417.057.687.301.824.697.119.34.157.694.17 1.05.012.38.002.761.002 1.143h.045m-1.896.008h.012c0 .198-.003.395 0 .593.007.356.012.712.025 1.068.01.277.124.384.403.4.389.022.527-.08.533-.466.016-.93.013-1.863.015-2.794 0-.176-.009-.352-.023-.528-.016-.2-.111-.302-.295-.329-.074-.01-.151-.013-.225-.008-.303.021-.401.12-.41.424-.015.547-.024 1.093-.035 1.64M4.209 66.144c.033-.563.058-1.127.106-1.688.016-.19.076-.38.141-.562.125-.343.375-.553.737-.624.275-.054.55-.054.824 0 .357.072.599.281.734.616.133.328.185.675.19 1.023.012.823.015 1.647-.003 2.47-.006.29-.065.585-.138.868-.119.461-.427.736-.908.777-.22.018-.447.019-.665-.013-.485-.07-.735-.398-.85-.848-.11-.428-.127-.867-.135-1.306-.004-.237 0-.474 0-.712l-.033-.001m1.872.012h.01c0-.393.004-.785-.001-1.177-.002-.194-.011-.388-.032-.58-.02-.188-.123-.281-.311-.3-.093-.008-.187-.007-.28 0-.189.015-.294.104-.316.293-.024.206-.037.415-.036.623.001.91.007 1.82.017 2.73.004.372.135.488.506.475l.043-.001c.254-.017.351-.107.386-.36.008-.053.013-.107.013-.16v-1.543M18.06 63.265h.866l.133 1.073.316 2.547c.024.2.05.4.072.6.006.06.021.088.09.088.07 0 .078-.035.085-.092.148-1.206.299-2.411.448-3.617l.071-.596h.872c-.222 1.935-.507 3.857-.85 5.779h-.5c-.224 0-.447-.003-.67.001-.067.002-.095-.02-.105-.086-.195-1.257-.397-2.513-.587-3.77-.089-.59-.155-1.184-.23-1.776-.007-.046-.008-.092-.012-.151M10.23 63.245c.533.015 1.063-.005 1.585.055.554.063.837.381.929.99.109.718.115 1.441-.014 2.158-.11.61-.494.929-1.113.955-.168.008-.337.002-.52.002v1.635h-.866v-5.795zm.872.863v2.405c.158 0 .31.012.458-.003.236-.023.349-.134.352-.37.009-.555.007-1.112 0-1.668-.003-.194-.098-.3-.291-.33-.169-.028-.342-.024-.519-.034z" transform="translate(-45 -15) translate(45 15)"/>
                <path fill="#30287B" d="M44.839 56.529c0-6.187-2.191-9.085-6.485-9.085-1.534 0-2.892.216-4.163.606v17.823c1.27.346 2.498.52 3.9.52 4.469 0 6.748-2.986 6.748-9.864m6.003-.173c0 8.522-4.776 13.584-13.102 13.584-2.98 0-6.134-.476-9.42-1.688V39.008l-3.33-.303v-3.46l8.675-.52.526.52v9.43c1.665-.476 3.462-.822 5.39-.822 7.098 0 11.26 4.283 11.26 12.503M22.084 46.708C18.71 47.833 16.3 48.31 12.97 48.31 5.652 48.31 0 44.2 0 35.417 0 27.111 5.915 22.18 13.67 22.18c2.542 0 5.259.346 7.888.908l-.613 9.475h-4.777l-.262-6.36c-.702-.086-1.359-.13-2.016-.13-4.776 0-7.975 3.375-7.975 8.74 0 5.926 3.2 9.041 8.677 9.041 2.41 0 4.644-.303 6.747-.908l.745 3.763M33.607.029L25.063.548 25.063 4.009 28.305 4.615 28.305 28.387 25.063 29.036 25.063 32.497 37.332 32.497 37.332 29.036 34.133 28.387 34.133.548 33.607.029M64.444 36.647v3.504H57.17l-1.095-2.077c-2.235 1.557-4.951 2.596-8.106 2.596-4.645 0-7.274-2.509-7.274-6.88l-.088-14.621-3.198-.65v-3.46h8.544l.526.52v17.347c0 2.206 1.402 3.505 3.812 3.505 1.84 0 3.242-.563 5.127-1.558V19.299l-3.243-.78v-3.46h8.545l.526.52v20.635l3.198.433M60.128 52.666h10.605v-.13c0-4.023-1.622-6.013-4.733-6.013-3.111 0-5.214 2.12-5.872 6.143m15.337 10.816l.788 3.677c-3.417 1.168-5.827 1.644-9.157 1.644-8.063 0-13.146-4.586-13.146-12.935 0-7.658 4.864-13.195 12.05-13.195 6.485 0 10.253 3.807 10.253 10.123 0 .995-.131 2.336-.306 3.504h-15.95c.307 5.495 3.199 8.22 8.632 8.22 2.542 0 4.426-.303 6.836-1.038" transform="translate(-45 -15) translate(45 15)"/>
            </g>
        </g>
    </g>
</svg>
