<svg width="16" height="17" viewBox="0 0 16 17" fill="none" xmlns="http://www.w3.org/2000/svg">
<path fill-rule="evenodd" clip-rule="evenodd" d="M4.76124 1.04373C2.0352 1.47261 0.111084 3.70926 0.111084 6.44923C0.111084 10.4786 4.26504 13.1016 7.90029 11.3676L8.22252 11.2139L10.4886 13.4869C12.247 15.2505 12.7875 15.7761 12.9006 15.8327C14.2152 16.4895 15.5318 15.1671 14.8778 13.8467C14.8215 13.733 14.2982 13.1901 12.5425 11.4239L10.2796 9.14765L10.4326 8.82399C12.295 4.88451 9.0082 0.375554 4.76124 1.04373ZM6.10389 2.59728C9.24299 3.10465 10.5101 6.9002 8.29834 9.17049C6.0663 11.4616 2.21153 10.2048 1.70126 7.01957C1.29585 4.48892 3.5845 2.19006 6.10389 2.59728Z" fill="#30287B"/>
</svg>
